# xmcd
#
# Track frame offsets: 
#        150
#        11167
#        23031
#        34623
#        51476
#        65421
#        79100
#        90886
#        104364
#        119383
#
# Disc length: 1750 seconds
#
# Revision: 0
# Processed by: cddbd v1.5.2PL0 Copyright (c) Steve Scherf et al.
# Submitted via: ExactAudioCopy v0.99pb5
#
DISCID=7606d40a
DTITLE=Conway Twitty - 10 Top 10's
DYEAR=1900
DGENRE=Country
TTITLE0=As Soon As I Hang Up The Phone
TTITLE1=She Needs Someone To Hold Her (When She Cries)
TTITLE2=To See An Angel Cry
TTITLE3=Don't Cry Joni
TTITLE4=Fifteen Years Ago
TTITLE5=Baby's Gone
TTITLE6=I'm Not Through Loving You Yet
TTITLE7=The Games That Daddies Play
TTITLE8=(Lost Her Love) On Our Last Date
TTITLE9=I Can't See Me Without You
EXTD=
EXTT0=
EXTT1=
EXTT2=
EXTT3=
EXTT4=
EXTT5=
EXTT6=
EXTT7=
EXTT8=
EXTT9=
PLAYORDER=
